<svg preserveAspectRatio="xMidYMid meet" width="100%" height="100%" overflow="visible" style="display: block;" viewBox="0 0 24 24" fill="none" xmlns="http://www.w3.org/2000/svg">
<g id="ic:sharp-gps-off">
<path id="Vector" d="M20.94 11C20.7135 8.97212 19.8042 7.08154 18.3613 5.63869C16.9185 4.19585 15.0279 3.28651 13 3.06V1H11V3.06C10.02 3.17 9.09 3.44 8.23 3.84L9.76 5.37C10.9959 4.95116 12.3244 4.88641 13.5952 5.18307C14.866 5.47972 16.0285 6.12596 16.9513 7.04872C17.874 7.97148 18.5203 9.13397 18.8169 10.4048C19.1136 11.6756 19.0488 13.0041 18.63 14.24L20.16 15.77C20.56 14.91 20.83 13.98 20.94 13H23V11H20.94ZM3 4.27L5.04 6.31C3.94239 7.6502 3.25488 9.27869 3.06 11H1V13H3.06C3.28651 15.0279 4.19585 16.9185 5.63869 18.3613C7.08154 19.8042 8.97212 20.7135 11 20.94V23H13V20.94C14.77 20.74 16.38 20.03 17.69 18.96L19.73 21L21.14 19.59L4.41 2.86L3 4.27ZM16.27 17.54C14.9238 18.5767 13.2463 19.0879 11.5507 18.9782C9.85511 18.8686 8.25742 18.1455 7.05596 16.944C5.8545 15.7426 5.13143 14.1449 5.02176 12.4493C4.91209 10.7537 5.42333 9.07622 6.46 7.73L16.27 17.54Z" fill="var(--fill-0, black)"/>
</g>
</svg>
