<svg preserveAspectRatio="xMidYMid meet" width="100%" height="100%" overflow="visible" style="display: block;" viewBox="0 0 22 22" fill="none" xmlns="http://www.w3.org/2000/svg">
<g id="Group">
<path id="Vector" fill-rule="evenodd" clip-rule="evenodd" d="M0 11C0 4.9247 4.9247 0 11 0C17.0753 0 22 4.9247 22 11C22 17.0753 17.0753 22 11 22C4.9247 22 0 17.0753 0 11ZM11 2.2C8.66609 2.2 6.42778 3.12714 4.77746 4.77746C3.12714 6.42778 2.2 8.66609 2.2 11C2.2 13.3339 3.12714 15.5722 4.77746 17.2225C6.42778 18.8729 8.66609 19.8 11 19.8C13.3339 19.8 15.5722 18.8729 17.2225 17.2225C18.8729 15.5722 19.8 13.3339 19.8 11C19.8 8.66609 18.8729 6.42778 17.2225 4.77746C15.5722 3.12714 13.3339 2.2 11 2.2Z" fill="var(--fill-0, #A1285E)"/>
<path id="Vector_2" d="M8.12595 6.87834C8.33275 6.58134 8.44165 6.26234 8.47465 6.09404L10.0939 6.41084C9.98574 6.91919 9.77582 7.4004 9.47675 7.82544C9.12035 8.33254 8.56595 8.85064 7.76075 9.06624C6.95665 9.28184 6.21635 9.11024 5.65535 8.84954C5.18339 8.63119 4.76055 8.31949 4.41235 7.93324L5.65535 6.84864C5.76975 6.97954 6.02385 7.20064 6.35055 7.35354C6.67065 7.50204 7.00505 7.56034 7.33395 7.47234C7.66285 7.38434 7.92245 7.16654 8.12595 6.87834ZM8.23595 11.99C8.96745 11.4554 9.90465 11 11.0003 11C12.0959 11 13.0331 11.4554 13.7646 11.99C14.4961 12.5235 15.0912 13.1868 15.5246 13.728C15.7252 13.9778 15.8324 14.2897 15.8276 14.6101C15.8228 14.9304 15.7063 15.239 15.4982 15.4825C15.144 15.9027 14.4708 16.1645 13.8086 15.8345L12.7086 15.2845C12.2246 15.0425 11.9056 14.9435 11.6779 14.8973C11.4542 14.8583 11.2271 14.8425 11.0003 14.85C10.7275 14.85 10.5493 14.8522 10.3227 14.8973C10.0961 14.9424 9.77595 15.0425 9.29195 15.2834L8.19195 15.8334C7.91202 15.9745 7.59254 16.0164 7.28568 15.9525C6.97881 15.8886 6.70268 15.7225 6.50235 15.4814C6.29497 15.2379 6.17899 14.9297 6.17437 14.6098C6.16975 14.29 6.27679 13.9786 6.47705 13.7291C6.90935 13.1868 7.50445 12.5246 8.23595 11.99ZM13.527 6.09404C13.56 6.26344 13.67 6.58244 13.8768 6.87834C14.0792 7.16654 14.3388 7.38434 14.6688 7.47234C14.9966 7.56034 15.331 7.50204 15.6511 7.35354C15.9789 7.20064 16.2319 6.97954 16.3452 6.84864L17.5893 7.93324C17.2411 8.31949 16.8182 8.63119 16.3463 8.84954C15.7853 9.11134 15.0461 9.28184 14.2409 9.06624C13.4368 8.85064 12.8813 8.33254 12.5249 7.82544C12.2262 7.40031 12.0166 6.91911 11.9089 6.41084L13.527 6.09404Z" fill="var(--fill-0, #A1285E)"/>
</g>
</svg>
