<svg preserveAspectRatio="none" width="100%" height="100%" overflow="visible" style="display: block;" viewBox="0 0 302.938 204.758" fill="none" xmlns="http://www.w3.org/2000/svg">
<path id="Vector" opacity="0.45" d="M240.107 5.42676C248.757 1.29149 258.902 -0.0364766 268.181 1.82324C283.123 4.81951 295.512 18.3914 299.324 32.9365C303.55 49.0645 302.099 66.1878 298.874 82.7344L298.556 84.334C290.545 123.971 275.424 162.537 250.795 194.459C249.483 196.16 247.429 197.143 245.26 197.143H72.7158C69.7938 197.143 67.1526 198.539 65.4873 200.748C64.5324 194.348 61.4178 188.619 57.2021 183.586C52.1295 177.53 45.4235 172.426 38.8262 168.288C32.2206 164.145 25.3064 160.243 19.1416 155.619C12.9979 151.011 7.70672 145.76 4.38477 139.019C-0.210352 129.692 0.126449 119.016 3.86816 109.203C7.61142 99.3861 14.7388 90.5043 23.5918 84.8311C41.3749 73.4352 63.9622 72.2797 85.2324 74.5791C95.8736 75.7294 106.427 77.641 117.078 79.2891C127.707 80.9336 138.401 82.3095 149.211 82.3545C170.822 82.4444 194.074 76.219 208.018 59.3389C212.546 53.855 214.727 47.3803 216.52 40.8965C218.271 34.5599 219.644 28.2751 222.396 22.5596L222.666 22.0078C226.374 14.6011 232.67 8.98362 240.107 5.42676Z" stroke="var(--stroke-0, #016959)" stroke-width="2"/>
</svg>
