<svg preserveAspectRatio="xMidYMid meet" width="100%" height="100%" overflow="visible" style="display: block;" viewBox="0 0 19.0003 21.8141" fill="none" xmlns="http://www.w3.org/2000/svg">
<g id="Group">
<g id="Vector">
</g>
<path id="Vector_2" fill-rule="evenodd" clip-rule="evenodd" d="M11 0.000121662C11.7956 -0.00703918 12.5615 0.302164 13.1292 0.859709C13.6969 1.41725 14.0198 2.17747 14.027 2.97312C14.0341 3.76877 13.7249 4.53468 13.1674 5.10235C12.6098 5.67002 11.8496 5.99296 11.054 6.00012L10.836 6.65312C11.3516 6.96582 11.7992 7.37898 12.1521 7.86806C12.5049 8.35714 12.7558 8.91215 12.89 9.50012H14.209C14.4387 8.97372 14.8427 8.54248 15.353 8.27891C15.8633 8.01534 16.4488 7.93551 17.011 8.05286C17.5733 8.1702 18.078 8.47756 18.4402 8.92325C18.8025 9.36894 19.0003 9.92577 19.0003 10.5001C19.0003 11.0745 18.8025 11.6313 18.4402 12.077C18.078 12.5227 17.5733 12.83 17.011 12.9474C16.4488 13.0647 15.8633 12.9849 15.353 12.7213C14.8427 12.4578 14.4387 12.0265 14.209 11.5001H12.889C12.7225 12.2296 12.3767 12.906 11.883 13.4681L12.587 14.1721C13.1216 13.9623 13.7123 13.943 14.2595 14.1174C14.8067 14.2919 15.2772 14.6494 15.5918 15.13C15.9064 15.6105 16.046 16.1847 15.987 16.7561C15.928 17.3274 15.6741 17.861 15.268 18.2671C14.8618 18.6733 14.3282 18.9272 13.7569 18.9861C13.1856 19.0451 12.6114 18.9056 12.1308 18.591C11.6503 18.2764 11.2927 17.8059 11.1183 17.2586C10.9439 16.7114 10.9632 16.1208 11.173 15.5861L10.239 14.6521C9.68813 14.8823 9.09698 15.0006 8.49997 15.0001C7.81285 15.0001 7.13485 14.8428 6.51797 14.5401L5.64697 15.5861C5.98029 16.2103 6.08225 16.9322 5.93482 17.6243C5.7874 18.3164 5.40009 18.9341 4.84132 19.3682C4.28256 19.8024 3.58832 20.0251 2.88127 19.9969C2.17422 19.9687 1.49989 19.6916 0.977421 19.2143C0.454955 18.7371 0.117992 18.0906 0.0260743 17.389C-0.0658433 16.6874 0.093202 15.9758 0.475106 15.3801C0.85701 14.7844 1.43719 14.3429 2.11312 14.1336C2.78905 13.9242 3.51723 13.9606 4.16897 14.2361L4.96297 13.2821C4.33775 12.4897 3.99842 11.5095 3.99997 10.5001C3.99997 9.76512 4.17597 9.07212 4.48797 8.45912L3.61997 7.73512C3.10642 7.99245 2.51992 8.06509 1.95912 7.94081C1.39831 7.81653 0.897401 7.50293 0.540642 7.05273C0.183882 6.60254 -0.00696623 6.04323 0.000194403 5.46886C0.00735503 4.89449 0.212088 4.34011 0.57996 3.89895C0.947832 3.45779 1.4564 3.15677 2.02013 3.04651C2.58387 2.93625 3.16837 3.02349 3.67534 3.29354C4.18232 3.56359 4.58083 3.99999 4.80386 4.52934C5.02689 5.05869 5.06083 5.64869 4.89997 6.20012L5.76997 6.92412C6.67338 6.23182 7.80641 5.90932 8.93897 6.02212L9.15697 5.36812C8.66345 4.98425 8.3022 4.45576 8.12371 3.85654C7.94522 3.25732 7.95841 2.6173 8.16144 2.02595C8.36447 1.43459 8.7472 0.921443 9.25612 0.55823C9.76504 0.195018 10.3747 -0.000108757 11 0.000121662ZM2.99997 16.0001C2.73475 16.0001 2.4804 16.1055 2.29286 16.293C2.10533 16.4806 1.99997 16.7349 1.99997 17.0001C1.99997 17.2653 2.10533 17.5197 2.29286 17.7072C2.4804 17.8948 2.73475 18.0001 2.99997 18.0001C3.26519 18.0001 3.51954 17.8948 3.70708 17.7072C3.89461 17.5197 3.99997 17.2653 3.99997 17.0001C3.99997 16.7349 3.89461 16.4806 3.70708 16.293C3.51954 16.1055 3.26519 16.0001 2.99997 16.0001ZM13.5 16.0001C13.3674 16.0001 13.2402 16.0528 13.1464 16.1466C13.0526 16.2403 13 16.3675 13 16.5001C13 16.6327 13.0526 16.7599 13.1464 16.8537C13.2402 16.9474 13.3674 17.0001 13.5 17.0001C13.6326 17.0001 13.7598 16.9474 13.8535 16.8537C13.9473 16.7599 14 16.6327 14 16.5001C14 16.3675 13.9473 16.2403 13.8535 16.1466C13.7598 16.0528 13.6326 16.0001 13.5 16.0001ZM8.49997 8.00012C7.83693 8.00012 7.20105 8.26351 6.7322 8.73236C6.26336 9.2012 5.99997 9.83708 5.99997 10.5001C5.99997 11.1632 6.26336 11.799 6.7322 12.2679C7.20105 12.7367 7.83693 13.0001 8.49997 13.0001C9.16301 13.0001 9.7989 12.7367 10.2677 12.2679C10.7366 11.799 11 11.1632 11 10.5001C11 9.83708 10.7366 9.2012 10.2677 8.73236C9.7989 8.26351 9.16301 8.00012 8.49997 8.00012ZM16.5 10.0001C16.3674 10.0001 16.2402 10.0528 16.1464 10.1466C16.0526 10.2403 16 10.3675 16 10.5001C16 10.6327 16.0526 10.7599 16.1464 10.8537C16.2402 10.9474 16.3674 11.0001 16.5 11.0001C16.6326 11.0001 16.7598 10.9474 16.8535 10.8537C16.9473 10.7599 17 10.6327 17 10.5001C17 10.3675 16.9473 10.2403 16.8535 10.1466C16.7598 10.0528 16.6326 10.0001 16.5 10.0001ZM2.49997 5.00012C2.36736 5.00012 2.24019 5.0528 2.14642 5.14657C2.05265 5.24034 1.99997 5.36751 1.99997 5.50012C1.99997 5.63273 2.05265 5.75991 2.14642 5.85367C2.24019 5.94744 2.36736 6.00012 2.49997 6.00012C2.63258 6.00012 2.75976 5.94744 2.85352 5.85367C2.94729 5.75991 2.99997 5.63273 2.99997 5.50012C2.99997 5.36751 2.94729 5.24034 2.85352 5.14657C2.75976 5.0528 2.63258 5.00012 2.49997 5.00012ZM11 2.00012C10.7348 2.00012 10.4804 2.10548 10.2929 2.29302C10.1053 2.48055 9.99997 2.73491 9.99997 3.00012C9.99997 3.26534 10.1053 3.51969 10.2929 3.70723C10.4804 3.89476 10.7348 4.00012 11 4.00012C11.2652 4.00012 11.5195 3.89476 11.7071 3.70723C11.8946 3.51969 12 3.26534 12 3.00012C12 2.73491 11.8946 2.48055 11.7071 2.29302C11.5195 2.10548 11.2652 2.00012 11 2.00012Z" fill="var(--fill-0, #CA8A04)"/>
</g>
</svg>
