<svg preserveAspectRatio="xMidYMid meet" width="100%" height="100%" overflow="visible" style="display: block;" viewBox="0 0 22 22" fill="none" xmlns="http://www.w3.org/2000/svg">
<g id="bi:heartbreak" clip-path="url(#clip0_0_18)">
<path id="Vector" d="M12.1918 19.8138C30.4903 6.99609 18.7781 -2.96028 12.2798 0.805843L9.62471 4.12509L11.6872 9.62509L8.93721 13.7501L10.9997 20.6251C11.4008 20.3602 11.7982 20.0897 12.1918 19.8138ZM11.7752 18.4251L10.4401 13.9742L12.8326 10.3882C12.9533 10.2067 13.029 9.99902 13.0536 9.78242C13.0783 9.56582 13.051 9.34647 12.9742 9.14247L11.1867 4.37397L13.1805 1.88109C15.7393 0.577593 19.2937 1.88384 20.3263 4.78234C21.2765 7.44984 20.2507 12.3737 11.7752 18.4251ZM10.0565 19.9885C9.34558 19.4953 8.64776 18.9837 7.96371 18.454C-6.98117 6.83384 2.53246 -2.02391 8.87396 0.402968C9.30571 0.567968 9.72371 0.786593 10.117 1.05884L7.56221 4.12509L9.62471 9.62509L7.56221 13.7501L10.0565 19.9885ZM6.89396 15.781L6.28621 14.2602C6.21421 14.0801 6.18115 13.8867 6.1892 13.6928C6.19726 13.499 6.24625 13.309 6.33296 13.1355L8.12733 9.54672L6.27521 4.60634C6.19 4.37904 6.16649 4.13323 6.20707 3.8939C6.24764 3.65457 6.35085 3.43024 6.50621 3.24372L7.92521 1.53872C5.60421 0.921343 2.83771 2.08597 1.79821 4.46472C0.820583 6.70184 1.23033 10.721 6.89396 15.7796V15.781Z" fill="var(--fill-0, #9333EA)"/>
</g>
<defs>
<clipPath id="clip0_0_18">
<rect width="22" height="22" fill="white"/>
</clipPath>
</defs>
</svg>
